<svg enable-background="new 0 0 960 560" height="560" viewBox="0 0 960 560" width="960" xmlns="http://www.w3.org/2000/svg" xmlns:xlink="http://www.w3.org/1999/xlink"><linearGradient id="a"><stop offset="0" stop-color="#fff" stop-opacity="0"/><stop offset=".8235" stop-color="#fff"/></linearGradient><linearGradient id="b" gradientUnits="userSpaceOnUse" x1="359.3853" x2="359.397" xlink:href="#a" y1="194.7251" y2="194.7251"/><linearGradient id="c"><stop offset="0" stop-color="#fbd72b"/><stop offset="1" stop-color="#f9484a"/></linearGradient><linearGradient id="d" gradientUnits="userSpaceOnUse" x1="356.6226" x2="403.0796" xlink:href="#c" y1="230.1519" y2="230.1519"/><linearGradient id="e" gradientUnits="userSpaceOnUse" x1="375.7915" x2="375.8125" xlink:href="#a" y1="208.6826" y2="208.6826"/><linearGradient id="f" gradientUnits="userSpaceOnUse" x1="361.8989" x2="361.9009" xlink:href="#a" y1="196.4199" y2="196.4199"/><linearGradient id="g" gradientUnits="userSpaceOnUse" x1="569.5166" x2="461.672" y1="127.8066" y2="185.1487"><stop offset=".1581" stop-color="#f9484a"/><stop offset="1" stop-color="#fbd72b"/></linearGradient><linearGradient id="h" gradientUnits="userSpaceOnUse" x1="317.292" x2="524.8105" y1="195.7373" y2="195.7373"><stop offset=".2978" stop-color="#fbd72b"/><stop offset=".3566" stop-color="#fbd22c"/><stop offset="1" stop-color="#f9484a"/></linearGradient><linearGradient id="i" gradientUnits="userSpaceOnUse" x1="298.8154" x2="364.1529" xlink:href="#c" y1="230.8584" y2="190.021"/><linearGradient id="j" gradientUnits="userSpaceOnUse" x1="317.2769" x2="524.8105" y1="208.6279" y2="208.6279"><stop offset=".0551" stop-color="#fbd72b"/><stop offset="1" stop-color="#f9484a"/></linearGradient><g fill="#fff"><path d="m103.042 333.026v32.997h-15.431v-88.806h33.973c5.164 0 9.75.702 13.754 2.104 4.006 1.403 7.391 3.364 10.156 5.886s4.869 5.511 6.312 8.966c1.443 3.456 2.165 7.218 2.165 11.284 0 4.311-.722 8.173-2.165 11.589-1.443 3.415-3.547 6.303-6.312 8.66-2.766 2.359-6.15 4.169-10.156 5.428-4.004 1.262-8.59 1.892-13.754 1.892zm0-12.38h18.542c2.969 0 5.521-.367 7.655-1.099 2.135-.732 3.894-1.769 5.275-3.111 1.383-1.341 2.389-2.937 3.019-4.787.631-1.851.946-3.873.946-6.069 0-2.073-.315-4.064-.946-5.978-.63-1.91-1.636-3.607-3.019-5.092-1.382-1.484-3.141-2.663-5.275-3.538-2.135-.874-4.687-1.312-7.655-1.312h-18.542z"/><path d="m166.048 282.891c0-2.276.722-4.168 2.165-5.673 1.443-1.504 3.508-2.257 6.191-2.257s4.757.753 6.222 2.257c1.463 1.505 2.195 3.396 2.195 5.673 0 2.236-.732 4.097-2.195 5.58-1.465 1.484-3.538 2.227-6.222 2.227s-4.748-.742-6.191-2.227c-1.443-1.484-2.165-3.344-2.165-5.58zm15.737 83.132h-14.822v-65.994h14.822z"/><path d="m195.143 332.417c0-4.798.7-9.241 2.104-13.328 1.401-4.086 3.415-7.633 6.037-10.643 2.624-3.009 5.824-5.367 9.606-7.075s8.072-2.562 12.869-2.562c4.84 0 9.17.854 12.992 2.562 3.821 1.708 7.045 4.066 9.667 7.075 2.623 3.01 4.626 6.557 6.009 10.643 1.381 4.087 2.072 8.53 2.072 13.328v1.28c0 4.798-.691 9.251-2.072 13.357-1.383 4.107-3.386 7.654-6.009 10.644-2.622 2.988-5.835 5.327-9.637 7.014-3.803 1.688-8.102 2.531-12.899 2.531-4.839 0-9.159-.844-12.962-2.531-3.802-1.687-7.013-4.025-9.637-7.014-2.622-2.989-4.636-6.536-6.037-10.644-1.404-4.106-2.104-8.56-2.104-13.357v-1.28zm14.82 1.28c0 2.969.306 5.774.914 8.417.611 2.644 1.566 4.95 2.867 6.923 1.302 1.973 2.958 3.528 4.972 4.666 2.013 1.139 4.401 1.707 7.167 1.707 2.724 0 5.092-.568 7.105-1.707 2.012-1.138 3.659-2.693 4.94-4.666 1.28-1.973 2.234-4.279 2.867-6.923.629-2.643.944-5.448.944-8.417v-1.28c0-2.929-.315-5.703-.944-8.326-.633-2.622-1.598-4.92-2.898-6.892-1.302-1.973-2.958-3.548-4.971-4.728-2.012-1.179-4.401-1.769-7.167-1.769-2.765 0-5.133.59-7.105 1.769-1.973 1.18-3.608 2.755-4.91 4.728-1.301 1.972-2.256 4.27-2.867 6.892-.608 2.623-.914 5.397-.914 8.326z"/><path d="m287.606 283.988v16.041h11.65v10.979h-11.65v36.84c0 1.504.163 2.725.487 3.659.326.936.794 1.657 1.403 2.166.61.509 1.332.854 2.166 1.036.833.184 1.759.274 2.774.274 1.017 0 2.002-.07 2.959-.213.954-.143 1.697-.274 2.227-.396v11.467c-1.181.325-2.553.641-4.117.945-1.566.305-3.446.457-5.642.457-2.439 0-4.707-.326-6.802-.977-2.094-.649-3.903-1.707-5.428-3.171s-2.715-3.375-3.567-5.733c-.855-2.357-1.281-5.245-1.281-8.661v-37.693h-10.855v-10.979h10.856v-16.041z"/><path d="m345.124 313.569c-.976-.162-1.963-.283-2.959-.365-.996-.081-2.022-.123-3.079-.123-3.579 0-6.486.693-8.724 2.074-2.235 1.383-3.902 3.294-5 5.733v45.135h-14.821v-65.994h14.15l.365 7.381c1.667-2.685 3.73-4.789 6.191-6.313 2.459-1.525 5.356-2.287 8.69-2.287.854 0 1.82.092 2.898.274 1.076.183 1.859.376 2.348.579z"/><path d="m412.52 327.659-10.064 10.673v27.691h-15.431v-88.806h15.431v41.658l8.539-10.552 25.984-31.106h18.663l-32.997 39.341 34.888 49.465h-18.298z"/><path d="m459.912 332.417c0-4.798.7-9.241 2.104-13.328 1.402-4.086 3.416-7.633 6.037-10.643 2.624-3.009 5.825-5.367 9.607-7.075 3.781-1.708 8.071-2.562 12.869-2.562 4.839 0 9.169.854 12.991 2.562s7.045 4.066 9.668 7.075c2.623 3.01 4.625 6.557 6.008 10.643 1.382 4.087 2.072 8.53 2.072 13.328v1.28c0 4.798-.69 9.251-2.072 13.357-1.383 4.107-3.385 7.654-6.008 10.644-2.623 2.988-5.836 5.327-9.637 7.014-3.803 1.688-8.103 2.531-12.9 2.531-4.839 0-9.159-.844-12.961-2.531-3.803-1.687-7.014-4.025-9.638-7.014-2.621-2.989-4.635-6.536-6.037-10.644-1.403-4.106-2.104-8.56-2.104-13.357v-1.28zm14.82 1.28c0 2.969.305 5.774.914 8.417.61 2.644 1.565 4.95 2.867 6.923 1.301 1.973 2.958 3.528 4.972 4.666 2.013 1.139 4.4 1.707 7.166 1.707 2.725 0 5.093-.568 7.106-1.707 2.012-1.138 3.659-2.693 4.939-4.666 1.281-1.973 2.236-4.279 2.867-6.923.63-2.643.945-5.448.945-8.417v-1.28c0-2.929-.315-5.703-.945-8.326-.631-2.622-1.597-4.92-2.896-6.892-1.303-1.973-2.959-3.548-4.973-4.728-2.012-1.179-4.4-1.769-7.166-1.769-2.765 0-5.134.59-7.105 1.769-1.972 1.18-3.609 2.755-4.91 4.728-1.302 1.972-2.257 4.27-2.867 6.892-.609 2.623-.914 5.397-.914 8.326z"/><path d="m591.778 345.591 10.491-45.562h14.454l-17.993 65.994h-12.198l-14.149-45.317-13.907 45.317h-12.199l-18.054-65.994h14.457l10.673 45.073 13.542-45.073h11.161z"/><path d="m666.067 366.023c-.407-.772-.743-1.687-1.007-2.744-.265-1.057-.498-2.196-.701-3.416-.976 1.017-2.064 1.972-3.263 2.866-1.201.896-2.522 1.678-3.966 2.349s-3.01 1.199-4.695 1.585c-1.688.387-3.487.58-5.398.58-3.294 0-6.323-.498-9.088-1.494-2.766-.996-5.135-2.379-7.105-4.147-1.974-1.769-3.518-3.852-4.636-6.252-1.119-2.399-1.678-5.002-1.678-7.807 0-3.538.671-6.669 2.014-9.394 1.341-2.723 3.293-5.001 5.855-6.831 2.561-1.83 5.702-3.223 9.423-4.178s7.959-1.434 12.717-1.434h9.332v-4.33c0-3.416-.956-6.15-2.867-8.203-1.912-2.054-4.819-3.081-8.722-3.081-1.749 0-3.334.235-4.757.701-1.424.468-2.634 1.099-3.63 1.891-.997.793-1.769 1.739-2.317 2.837s-.823 2.277-.823 3.537h-14.822c0-2.602.641-5.112 1.922-7.533 1.281-2.418 3.101-4.573 5.459-6.465 2.357-1.89 5.215-3.404 8.569-4.544 3.355-1.137 7.106-1.707 11.253-1.707 3.7 0 7.115.479 10.248 1.434 3.13.955 5.833 2.378 8.111 4.27 2.276 1.89 4.046 4.249 5.307 7.075 1.26 2.826 1.891 6.129 1.891 9.91v29.277c0 5.937.833 10.673 2.501 14.211v1.037zm-16.286-10.673c1.708 0 3.304-.223 4.788-.671 1.484-.447 2.826-1.037 4.025-1.769s2.247-1.575 3.142-2.531c.894-.955 1.606-1.922 2.135-2.897v-12.442h-7.991c-5.488 0-9.615.956-12.381 2.867s-4.148 4.615-4.148 8.111c0 1.343.224 2.583.672 3.722.447 1.138 1.118 2.124 2.013 2.957.895.834 1.983 1.485 3.264 1.952 1.279.467 2.774.701 4.481.701z"/><path d="m709.981 366.023h-14.821v-93.684h14.821z"/><path d="m763.107 348.092c0-1.057-.174-2.044-.52-2.958-.346-.916-1.026-1.77-2.044-2.562-1.016-.794-2.449-1.535-4.299-2.227-1.851-.691-4.26-1.342-7.229-1.952-3.537-.731-6.761-1.646-9.667-2.745-2.907-1.098-5.397-2.429-7.471-3.994-2.075-1.565-3.69-3.405-4.85-5.521-1.159-2.114-1.737-4.554-1.737-7.319 0-2.684.588-5.234 1.768-7.654 1.179-2.419 2.876-4.544 5.093-6.373 2.216-1.831 4.899-3.283 8.052-4.361 3.15-1.077 6.678-1.616 10.581-1.616 4.107 0 7.798.539 11.07 1.616 3.274 1.078 6.049 2.562 8.327 4.453 2.276 1.89 4.015 4.116 5.214 6.678s1.8 5.327 1.8 8.295h-14.821c0-1.259-.244-2.489-.731-3.689-.488-1.199-1.221-2.267-2.196-3.202s-2.187-1.678-3.629-2.227c-1.444-.549-3.121-.823-5.033-.823-1.87 0-3.497.234-4.88.702-1.381.467-2.529 1.076-3.444 1.829-.915.752-1.596 1.626-2.044 2.622-.447.997-.671 2.044-.671 3.142s.204 2.073.61 2.928c.406.854 1.129 1.627 2.165 2.317 1.036.692 2.43 1.333 4.178 1.922 1.748.59 3.944 1.169 6.587 1.737 3.822.814 7.249 1.77 10.277 2.867 3.029 1.098 5.591 2.44 7.685 4.025 2.095 1.586 3.69 3.457 4.789 5.611 1.098 2.156 1.647 4.718 1.647 7.686 0 2.928-.631 5.611-1.892 8.051-1.26 2.439-3.06 4.544-5.397 6.312-2.339 1.77-5.154 3.142-8.448 4.117-3.293.976-6.952 1.464-10.978 1.464-4.514 0-8.509-.64-11.985-1.921-3.477-1.28-6.396-2.959-8.753-5.032-2.358-2.073-4.138-4.421-5.337-7.045-1.199-2.622-1.799-5.296-1.799-8.021h14.395c.121 2.034.589 3.742 1.402 5.123.813 1.383 1.85 2.501 3.11 3.355s2.683 1.474 4.27 1.859c1.586.387 3.212.58 4.88.58 3.903 0 6.871-.741 8.904-2.226s3.051-3.424 3.051-5.823z"/><path d="m812.022 337.723-6.587 6.771v21.53h-14.822v-93.684h14.822v54.039l4.635-5.794 18.237-20.555h17.811l-24.521 27.508 27.143 38.486h-17.14z"/><path d="m855.815 282.891c0-2.276.723-4.168 2.166-5.673 1.442-1.504 3.507-2.257 6.19-2.257s4.758.753 6.221 2.257c1.464 1.505 2.196 3.396 2.196 5.673 0 2.236-.732 4.097-2.196 5.58-1.463 1.484-3.537 2.227-6.221 2.227s-4.748-.742-6.19-2.227c-1.443-1.484-2.166-3.344-2.166-5.58zm15.737 83.132h-14.822v-65.994h14.821v65.994z"/><path d="m259.531 394.893h-12.175v32.961h-3v-32.961h-12.15v-2.561h27.325z"/><path d="m274.95 403.945c-.618-.114-1.277-.172-1.976-.172-.993 0-1.889.147-2.685.439-.797.293-1.499.704-2.11 1.232-.609.529-1.122 1.154-1.536 1.879-.416.724-.745 1.524-.989 2.402v18.127h-2.903v-26.396h2.855l.048 4.195c.716-1.447 1.688-2.59 2.916-3.428 1.229-.837 2.735-1.257 4.525-1.257.357 0 .724.033 1.099.099.373.064.649.139.829.219z"/><path d="m289.32 428.342c-1.725 0-3.311-.321-4.758-.964-1.448-.642-2.695-1.536-3.745-2.684-1.049-1.146-1.866-2.508-2.451-4.087-.585-1.576-.879-3.31-.879-5.196v-1.049c0-2.033.305-3.875.915-5.526.609-1.65 1.436-3.057 2.477-4.22 1.04-1.163 2.24-2.062 3.598-2.696 1.358-.635 2.794-.952 4.307-.952 1.675 0 3.163.302 4.465.902 1.301.603 2.396 1.439 3.28 2.514.888 1.073 1.559 2.351 2.014 3.831.455 1.479.684 3.098.684 4.854v1.78h-18.835v.562c0 1.448.22 2.811.658 4.087.439 1.277 1.057 2.388 1.855 3.33.796.943 1.748 1.688 2.854 2.232 1.104.545 2.333.817 3.684.817 1.562 0 2.939-.284 4.136-.854 1.194-.568 2.281-1.479 3.257-2.732l1.829 1.391c-.439.635-.948 1.236-1.524 1.806-.577.569-1.248 1.065-2.013 1.489-.766.422-1.627.756-2.586 1-.962.243-2.035.365-3.222.365zm-.537-24.885c-1.106 0-2.131.212-3.074.634-.943.424-1.776 1.025-2.501 1.806-.724.78-1.317 1.72-1.78 2.818-.464 1.097-.777 2.313-.939 3.647h15.834v-.317c-.033-1.106-.212-2.175-.537-3.209-.326-1.032-.801-1.947-1.427-2.744s-1.402-1.436-2.33-1.915c-.927-.48-2.01-.72-3.246-.72z"/><path d="m307.691 401.457.097 4.513c.456-.748.98-1.431 1.574-2.049s1.257-1.147 1.988-1.587c.731-.438 1.521-.776 2.367-1.012.845-.236 1.739-.354 2.683-.354 1.318 0 2.496.18 3.538.537 1.041.358 1.924.928 2.646 1.708.725.78 1.277 1.785 1.659 3.013.383 1.229.573 2.713.573 4.453v17.175h-2.902v-17.199c0-1.367-.146-2.505-.439-3.415-.293-.911-.708-1.644-1.244-2.196-.536-.554-1.191-.947-1.964-1.184-.772-.235-1.632-.354-2.574-.354-1.041 0-1.984.175-2.83.523-.846.351-1.595.818-2.244 1.403-.651.586-1.212 1.257-1.684 2.013-.472.757-.847 1.533-1.122 2.33v18.078h-2.904v-26.396z"/><path d="m342.579 428.342c-1.725 0-3.311-.321-4.758-.964-1.448-.642-2.695-1.536-3.745-2.684-1.048-1.146-1.865-2.508-2.452-4.087-.585-1.576-.877-3.31-.877-5.196v-1.049c0-2.033.304-3.875.915-5.526.609-1.65 1.434-3.057 2.476-4.22 1.041-1.163 2.24-2.062 3.599-2.696 1.357-.635 2.793-.952 4.307-.952 1.674 0 3.162.302 4.464.902 1.301.603 2.395 1.439 3.281 2.514.887 1.073 1.558 2.351 2.013 3.831.455 1.479.684 3.098.684 4.854v1.78h-18.836v.562c0 1.448.22 2.811.658 4.087.438 1.277 1.058 2.388 1.854 3.33.797.943 1.748 1.688 2.854 2.232 1.106.545 2.333.817 3.684.817 1.562 0 2.939-.284 4.137-.854 1.194-.568 2.28-1.479 3.256-2.732l1.831 1.391c-.439.635-.948 1.236-1.524 1.806-.578.569-1.25 1.065-2.014 1.489-.766.422-1.627.756-2.587 1-.959.243-2.033.365-3.22.365zm-.536-24.885c-1.107 0-2.133.212-3.074.634-.943.424-1.778 1.025-2.502 1.806-.723.78-1.316 1.72-1.779 2.818-.465 1.097-.778 2.313-.94 3.647h15.834v-.317c-.033-1.106-.212-2.175-.536-3.209-.326-1.032-.802-1.947-1.428-2.744-.627-.797-1.403-1.436-2.33-1.915-.929-.48-2.011-.72-3.245-.72z"/><path d="m370.367 403.945c-.619-.114-1.277-.172-1.977-.172-.991 0-1.887.147-2.683.439-.798.293-1.501.704-2.111 1.232-.609.529-1.122 1.154-1.536 1.879-.415.724-.744 1.524-.988 2.402v18.127h-2.903v-26.396h2.854l.049 4.195c.715-1.447 1.687-2.59 2.915-3.428 1.229-.837 2.736-1.257 4.525-1.257.357 0 .724.033 1.098.099.374.064.65.139.83.219z"/><path d="m408.354 414.924c0 1.984-.224 3.798-.671 5.44s-1.103 3.054-1.964 4.233c-.863 1.179-1.915 2.098-3.159 2.756-1.244.659-2.663.988-4.258.988-1.887 0-3.517-.337-4.891-1.013-1.376-.675-2.511-1.605-3.404-2.793v13.467h-2.903v-36.546h2.708l.147 3.731c.894-1.316 2.024-2.35 3.391-3.099 1.366-.748 2.992-1.122 4.879-1.122 1.611 0 3.046.317 4.307.952 1.26.634 2.32 1.537 3.184 2.708.861 1.172 1.517 2.583 1.964 4.233s.671 3.501.671 5.55v.515zm-2.928-.513c0-1.529-.157-2.96-.476-4.294-.316-1.334-.797-2.488-1.438-3.465-.644-.976-1.461-1.744-2.452-2.305-.993-.562-2.156-.842-3.49-.842-1.057 0-1.992.139-2.805.415s-1.525.646-2.135 1.109c-.61.464-1.131 1.001-1.561 1.61-.432.61-.786 1.249-1.062 1.915v12.663c.309.667.695 1.284 1.159 1.854.463.569 1.009 1.062 1.634 1.476.627.415 1.338.741 2.136.977.796.236 1.69.354 2.684.354 1.333 0 2.488-.28 3.464-.842.977-.562 1.785-1.334 2.429-2.317.642-.984 1.122-2.144 1.438-3.477.318-1.334.476-2.773.476-4.318v-.513z"/><path d="m427.018 403.945c-.618-.114-1.277-.172-1.977-.172-.992 0-1.888.147-2.684.439-.797.293-1.5.704-2.111 1.232-.608.529-1.122 1.154-1.535 1.879-.416.724-.745 1.524-.989 2.402v18.127h-2.902v-26.396h2.854l.048 4.195c.716-1.447 1.688-2.59 2.916-3.428 1.229-.837 2.735-1.257 4.525-1.257.357 0 .724.033 1.098.099.374.064.65.139.83.219z"/><path d="m429.53 414.265c0-1.919.281-3.691.841-5.318.562-1.627 1.354-3.029 2.38-4.209 1.024-1.179 2.26-2.102 3.708-2.769s3.058-1.001 4.831-1.001c1.805 0 3.436.334 4.891 1.001 1.456.667 2.696 1.59 3.722 2.769 1.024 1.18 1.812 2.582 2.366 4.209.553 1.627.829 3.399.829 5.318v.805c0 1.92-.276 3.693-.829 5.318-.554 1.627-1.342 3.03-2.366 4.21-1.025 1.179-2.262 2.098-3.709 2.756-1.448.659-3.065.988-4.855.988-1.789 0-3.407-.329-4.854-.988-1.448-.658-2.688-1.577-3.721-2.756-1.033-1.18-1.829-2.583-2.392-4.21-.56-1.625-.841-3.398-.841-5.318v-.805zm2.928.804c0 1.448.195 2.827.586 4.136.39 1.31.959 2.457 1.708 3.44.747.984 1.674 1.769 2.781 2.354 1.105.585 2.374.878 3.805.878 1.432 0 2.696-.293 3.795-.878 1.097-.586 2.02-1.37 2.769-2.354.747-.983 1.317-2.131 1.708-3.44.39-1.309.585-2.688.585-4.136v-.805c0-1.415-.195-2.776-.585-4.086-.391-1.31-.961-2.46-1.708-3.453-.749-.991-1.68-1.785-2.794-2.378-1.114-.594-2.387-.891-3.817-.891-1.415 0-2.672.297-3.769.891-1.1.593-2.022 1.387-2.77 2.378-.749.993-1.318 2.144-1.708 3.453-.391 1.31-.586 2.671-.586 4.086z"/><path d="m457.953 414.411c0-2.049.232-3.899.695-5.55.464-1.65 1.135-3.062 2.013-4.233s1.948-2.074 3.208-2.708c1.261-.635 2.688-.952 4.282-.952 1.886 0 3.505.379 4.855 1.135 1.349.757 2.463 1.81 3.342 3.16l.146-3.806h2.733v25.934c0 1.708-.253 3.24-.757 4.599-.505 1.358-1.216 2.509-2.134 3.452-.919.943-2.03 1.667-3.33 2.172-1.303.504-2.758.756-4.367.756-.83 0-1.676-.094-2.538-.28-.862-.188-1.695-.468-2.5-.843-.807-.373-1.566-.841-2.282-1.402s-1.341-1.225-1.878-1.988l1.634-1.756c1.074 1.317 2.212 2.28 3.416 2.891 1.203.609 2.521.915 3.953.915 1.252 0 2.362-.191 3.329-.573.968-.383 1.785-.937 2.453-1.659.665-.725 1.174-1.603 1.524-2.635.35-1.033.523-2.209.523-3.525v-3.074c-.877 1.22-1.991 2.176-3.342 2.866-1.351.691-2.96 1.037-4.83 1.037-1.578 0-2.993-.329-4.245-.988-1.254-.658-2.318-1.577-3.196-2.756-.878-1.18-1.549-2.591-2.013-4.233-.463-1.643-.695-3.456-.695-5.44v-.516zm2.952.513c0 1.545.154 2.98.464 4.306.308 1.326.78 2.477 1.414 3.452.635.977 1.437 1.74 2.403 2.293.968.554 2.118.83 3.453.83 1.007 0 1.914-.122 2.72-.366.805-.244 1.517-.581 2.135-1.013.617-.431 1.154-.939 1.61-1.524.455-.586.845-1.228 1.17-1.927v-12.272c-.276-.683-.63-1.337-1.061-1.964-.431-.626-.951-1.179-1.561-1.658-.611-.48-1.322-.863-2.136-1.147s-1.757-.427-2.83-.427c-1.35 0-2.513.28-3.489.842-.976.561-1.78 1.329-2.415 2.305-.634.977-1.106 2.131-1.414 3.465-.31 1.334-.464 2.765-.464 4.294v.511z"/><path d="m499.038 403.945c-.619-.114-1.278-.172-1.977-.172-.993 0-1.887.147-2.684.439-.797.293-1.5.704-2.11 1.232-.609.529-1.122 1.154-1.536 1.879-.417.724-.745 1.524-.989 2.402v18.127h-2.903v-26.396h2.854l.049 4.195c.716-1.447 1.688-2.59 2.915-3.428 1.229-.837 2.736-1.257 4.526-1.257.356 0 .724.033 1.099.099.373.064.649.139.828.219z"/><path d="m519.336 427.854c-.163-.455-.289-1.012-.378-1.671-.09-.658-.15-1.329-.184-2.013-.438.569-.96 1.106-1.561 1.61-.603.505-1.277.944-2.025 1.317-.748.374-1.57.675-2.464.902-.895.228-1.863.342-2.903.342-1.286 0-2.453-.188-3.501-.561-1.05-.374-1.943-.898-2.683-1.574-.741-.675-1.315-1.468-1.721-2.379-.407-.91-.61-1.902-.61-2.977 0-1.284.276-2.443.83-3.476.552-1.032 1.349-1.911 2.391-2.635 1.04-.725 2.305-1.276 3.794-1.659 1.486-.383 3.159-.574 5.013-.574h5.417v-3.001c0-1.886-.583-3.37-1.744-4.452-1.163-1.081-2.859-1.622-5.088-1.622-1.024 0-1.968.139-2.829.414-.863.277-1.606.659-2.232 1.146-.626.488-1.114 1.055-1.463 1.696-.351.643-.526 1.33-.526 2.062l-2.927-.024c0-.991.243-1.951.731-2.879.488-.927 1.176-1.752 2.061-2.477.888-.723 1.952-1.305 3.197-1.744 1.244-.439 2.623-.659 4.135-.659 1.399 0 2.688.18 3.867.537 1.179.358 2.191.896 3.038 1.61.845.716 1.503 1.61 1.976 2.685.472 1.072.707 2.325.707 3.756v12.785c0 .455.016.926.049 1.414.032.488.086.96.158 1.415.074.456.159.891.257 1.306.098.414.211.776.341 1.086v.292h-3.123zm-9.174-2.098c1.057 0 2.037-.134 2.941-.402.901-.269 1.719-.639 2.451-1.11.731-.472 1.365-1.021 1.902-1.646s.968-1.306 1.294-2.037v-5.807h-5.002c-1.497 0-2.834.134-4.013.402-1.181.269-2.177.655-2.989 1.158-.813.506-1.436 1.119-1.866 1.843s-.646 1.542-.646 2.451c0 .716.138 1.388.414 2.014s.672 1.171 1.185 1.634c.512.464 1.134.83 1.865 1.099.733.267 1.553.401 2.464.401z"/><path d="m532.096 401.457.098 4.293c.439-.715.948-1.37 1.525-1.964.576-.594 1.223-1.098 1.938-1.513s1.496-.735 2.343-.964c.845-.228 1.756-.342 2.732-.342 1.935 0 3.594.407 4.978 1.221 1.381.812 2.366 2.115 2.951 3.903.423-.731.932-1.411 1.524-2.037.595-.626 1.269-1.166 2.025-1.622s1.59-.813 2.501-1.074c.91-.26 1.895-.391 2.952-.391 1.366 0 2.586.183 3.659.55 1.073.366 1.98.943 2.721 1.731.739.789 1.305 1.794 1.695 3.014s.586 2.684.586 4.392v17.199h-2.929v-17.223c0-1.399-.155-2.558-.463-3.478-.31-.918-.749-1.65-1.317-2.195-.57-.545-1.248-.923-2.036-1.134-.79-.211-1.657-.317-2.599-.317-1.237.017-2.318.239-3.246.671-.927.432-1.711.976-2.353 1.635-.644.658-1.145 1.396-1.502 2.208-.357.813-.57 1.603-.634 2.366v17.468h-2.928v-17.444c0-1.318-.155-2.415-.464-3.294-.31-.878-.748-1.586-1.317-2.123-.57-.536-1.248-.918-2.036-1.146-.79-.227-1.665-.341-2.624-.341-1.106 0-2.082.175-2.927.523-.847.351-1.582.818-2.207 1.403-.627.586-1.145 1.253-1.551 2.001-.406.749-.731 1.521-.976 2.317v18.103h-2.928v-26.396z"/><path d="m572.106 414.265c0-1.919.281-3.691.842-5.318.562-1.627 1.354-3.029 2.379-4.209 1.024-1.179 2.261-2.102 3.708-2.769s3.059-1.001 4.831-1.001c1.806 0 3.437.334 4.891 1.001 1.457.667 2.697 1.59 3.722 2.769 1.024 1.18 1.813 2.582 2.366 4.209s.83 3.399.83 5.318v.805c0 1.92-.277 3.693-.83 5.318-.553 1.627-1.342 3.03-2.366 4.21-1.024 1.179-2.261 2.098-3.708 2.756-1.449.659-3.066.988-4.855.988s-3.408-.329-4.854-.988c-1.448-.658-2.688-1.577-3.722-2.756-1.032-1.18-1.828-2.583-2.391-4.21-.561-1.625-.842-3.398-.842-5.318v-.805zm2.929.804c0 1.448.194 2.827.585 4.136.391 1.31.959 2.457 1.707 3.44.748.984 1.676 1.769 2.782 2.354 1.105.585 2.374.878 3.806.878 1.431 0 2.695-.293 3.795-.878 1.096-.586 2.02-1.37 2.769-2.354.747-.983 1.316-2.131 1.707-3.44s.586-2.688.586-4.136v-.805c0-1.415-.195-2.776-.586-4.086s-.96-2.46-1.707-3.453c-.749-.991-1.68-1.785-2.794-2.378-1.113-.594-2.388-.891-3.818-.891-1.415 0-2.672.297-3.769.891-1.099.593-2.022 1.387-2.771 2.378-.748.993-1.316 2.144-1.707 3.453s-.585 2.671-.585 4.086z"/><path d="m608.02 421.779.439 2.269.585-2.391 6.343-20.2h2.489l6.271 20.029.683 2.781.562-2.562 5.416-20.249h3.025l-7.686 26.396h-2.488l-6.782-20.933-.317-1.439-.317 1.464-6.66 20.908h-2.488l-7.661-26.396h3.001z"/><path d="m656.032 427.854c-.162-.455-.288-1.012-.377-1.671-.09-.658-.151-1.329-.184-2.013-.439.569-.96 1.106-1.562 1.61-.602.505-1.277.944-2.024 1.317-.748.374-1.57.675-2.464.902-.896.228-1.863.342-2.903.342-1.286 0-2.453-.188-3.501-.561-1.05-.374-1.944-.898-2.685-1.574-.739-.675-1.313-1.468-1.72-2.379-.406-.91-.61-1.902-.61-2.977 0-1.284.276-2.443.83-3.476.553-1.032 1.35-1.911 2.392-2.635 1.04-.725 2.305-1.276 3.794-1.659 1.486-.383 3.158-.574 5.013-.574h5.417v-3.001c0-1.886-.583-3.37-1.744-4.452-1.164-1.081-2.859-1.622-5.088-1.622-1.024 0-1.969.139-2.829.414-.863.277-1.607.659-2.232 1.146-.627.488-1.114 1.055-1.464 1.696-.351.643-.525 1.33-.525 2.062l-2.928-.024c0-.991.244-1.951.732-2.879.487-.927 1.175-1.752 2.061-2.477.887-.723 1.951-1.305 3.197-1.744 1.244-.439 2.622-.659 4.135-.659 1.398 0 2.688.18 3.867.537 1.179.358 2.191.896 3.037 1.61.846.716 1.504 1.61 1.977 2.685.472 1.072.707 2.325.707 3.756v12.785c0 .455.016.926.049 1.414.032.488.086.96.158 1.415.074.456.159.891.257 1.306.097.414.21.776.341 1.086v.292h-3.124zm-9.173-2.098c1.057 0 2.037-.134 2.941-.402.901-.269 1.719-.639 2.45-1.11.732-.472 1.366-1.021 1.903-1.646s.968-1.306 1.294-2.037v-5.807h-5.002c-1.498 0-2.835.134-4.013.402-1.181.269-2.177.655-2.989 1.158-.814.506-1.436 1.119-1.867 1.843s-.646 1.542-.646 2.451c0 .716.137 1.388.414 2.014.276.626.671 1.171 1.184 1.634.512.464 1.135.83 1.866 1.099.734.267 1.554.401 2.465.401z"/><path d="m668.915 401.457.097 4.513c.455-.748.98-1.431 1.573-2.049.595-.618 1.258-1.147 1.989-1.587.731-.438 1.521-.776 2.367-1.012.845-.236 1.739-.354 2.683-.354 1.318 0 2.497.18 3.538.537 1.04.358 1.924.928 2.646 1.708.724.78 1.277 1.785 1.659 3.013.383 1.229.574 2.713.574 4.453v17.175h-2.903v-17.199c0-1.367-.147-2.505-.439-3.415-.293-.911-.708-1.644-1.244-2.196-.536-.554-1.191-.947-1.964-1.184-.773-.235-1.632-.354-2.574-.354-1.041 0-1.985.175-2.83.523-.846.351-1.595.818-2.244 1.403-.651.586-1.212 1.257-1.684 2.013-.473.757-.847 1.533-1.123 2.33v18.078h-2.903v-26.396z"/><path d="m693.409 393.82c0-.553.179-1.021.537-1.403.357-.382.846-.572 1.464-.572.617 0 1.109.19 1.476.572.365.383.549.851.549 1.403s-.184 1.016-.549 1.391c-.366.373-.858.561-1.476.561s-1.106-.188-1.464-.561c-.358-.375-.537-.838-.537-1.391zm3.441 34.034h-2.928v-26.396h2.928z"/><path d="m721.441 427.854c-.163-.455-.288-1.012-.377-1.671-.091-.658-.151-1.329-.184-2.013-.439.569-.961 1.106-1.562 1.61-.603.505-1.277.944-2.024 1.317-.749.374-1.57.675-2.465.902-.896.228-1.863.342-2.903.342-1.285 0-2.452-.188-3.501-.561-1.05-.374-1.943-.898-2.684-1.574-.74-.675-1.313-1.468-1.72-2.379-.407-.91-.61-1.902-.61-2.977 0-1.284.276-2.443.829-3.476s1.351-1.911 2.392-2.635c1.04-.725 2.306-1.276 3.794-1.659 1.487-.383 3.158-.574 5.013-.574h5.417v-3.001c0-1.886-.582-3.37-1.744-4.452-1.163-1.081-2.859-1.622-5.088-1.622-1.024 0-1.968.139-2.829.414-.863.277-1.606.659-2.232 1.146-.626.488-1.114 1.055-1.464 1.696-.351.643-.524 1.33-.524 2.062l-2.928-.024c0-.991.244-1.951.731-2.879.488-.927 1.175-1.752 2.062-2.477.887-.723 1.951-1.305 3.196-1.744 1.244-.439 2.623-.659 4.136-.659 1.397 0 2.688.18 3.866.537 1.18.358 2.191.896 3.038 1.61.845.716 1.503 1.61 1.977 2.685.471 1.072.707 2.325.707 3.756v12.785c0 .455.015.926.049 1.414.032.488.085.96.157 1.415.074.456.159.891.257 1.306.098.414.211.776.342 1.086v.292h-3.124zm-9.172-2.098c1.057 0 2.036-.134 2.94-.402.901-.269 1.719-.639 2.451-1.11.731-.472 1.366-1.021 1.902-1.646.537-.626.968-1.306 1.294-2.037v-5.807h-5.001c-1.498 0-2.835.134-4.014.402-1.18.269-2.176.655-2.988 1.158-.814.506-1.437 1.119-1.868 1.843-.43.724-.646 1.542-.646 2.451 0 .716.137 1.388.415 2.014.276.626.67 1.171 1.184 1.634.512.464 1.134.83 1.866 1.099.732.267 1.552.401 2.465.401z"/></g><path d="m359.385 194.722c.003.003.008.004.012.007-.004-.003-.009-.004-.012-.007z" fill="url(#b)"/><path d="m356.623 221.554c21.044 14.121 44.268 29.706 44.812 30.08.377-2.142.83-3.878 1.488-13.408.102-2.084.152-4.167.157-6.248-9.843-8.191-19.717-16.708-27.278-23.308z" fill="url(#d)"/><path d="m375.812 208.675-.02.014" fill="url(#e)"/><path d="m361.901 196.42c-.001-.001-.002-.001-.002-.001.001 0 .001 0 .002.001z" fill="url(#f)"/><path d="m456.306 175.058 21.603 18.774s18.414 17.951 46.9 7.76l41.442-79.925-124.024 23.806 20.357 17.899z" fill="url(#g)"/><path d="m524.825 201.581.019-.045c-2.301.353-4.604.761-7.006.761-10.334 0-19.292-3.3-27.673-8.827-1.354-.75-5.307-3.82-5.307-3.82l-5.794-5.024-14.774-12.589-4.419-3.586s-.892 1.643-1.869 3.449l-1.697 3.158 21.603 18.774c.001 0 18.455 17.905 46.917 7.749z" opacity=".4"/><path d="m477.909 193.832-36.972-32.132c-6.259-5.424-13.478-10.431-13.478-10.431s-21.031-15.899-54.206-9.265c-43.564 8.388-55.961 48.402-55.961 48.402 9.639-3.599 18.118-3.789 25.054-2.591 8.654 1.766 15.351 5.635 18.174 7.478 1.497 1.073 7.726 6.488 7.726 6.488s21.344 19.154 40.894 35.199c16.128 11.746 31.965 13.312 31.965 13.312 4.081.512 7.978.766 11.702.795 55.962.502 71.928-49.259 72.004-49.494-28.542 10.265-46.902-7.761-46.902-7.761z" fill="url(#h)"/><path d="m361.884 196.404s-21.423-16.478-44.584-5.994c-5.547 15.263-7.743 31.263-6.97 47.875.287 6.135 1.461 13.289 1.471 13.348l64.011-42.958c-8.251-7.2-13.928-12.271-13.928-12.271z" fill="url(#i)"/><path d="m524.811 201.593c-.083.25-18.986 56.835-83.706 48.698 0 0-15.837-1.566-31.965-13.312-21.522-17.593-47.256-40.575-47.256-40.575s-21.438-16.489-44.607-5.983c0 0 10.326-17.12 41.424-23.035 11.297-1.627 15.552-1.513 24.232-.344 8.68 1.167 14.438 3.672 14.438 3.672s9.807 3.463 17.192 8.831c6.489 4.938 9.036 7.4 16.181 14.756 0 0 8.356 7.876 13.947 10.631 5.593 2.754 41.416 23.889 80.12-3.339z" fill="url(#j)"/><g opacity=".4"><path d="m361.884 196.404s-21.389-16.45-44.527-6.018c2.326-.477 4.229-.351 6.599-.351 10.339 0 19.892 1.008 27.604 6.742.479.352.938.704 1.395 1.076 0 0 1.785 1.489 2.633 2.274l1.351 1.173 5.797 5.023 32.75 28.053 7.279 5.836s.167-1.299.252-4.178c.026-.877.045-2.353.067-4.053-20.008-16.65-41.2-35.577-41.2-35.577z"/><path d="m325.044 182.148-.097-.013-.382.413c.156-.132.318-.265.479-.4z"/><path d="m317.315 190.359-.039.041c.005-.001.01-.001.013-.002.008-.01.016-.022.026-.039z"/></g></svg>